<svg xmlns="http://www.w3.org/2000/svg" width="18" height="18" viewBox="0 0 18 18">
  <g fill="#EAB52F" fill-rule="evenodd">
    <path d="M2,17 L2,2 C2,0.8954305 2.8954305,0 4,0 L9,0 C10.1045695,0 11,0.8954305 11,2 L11,8 L14,8 C15.1045695,8 16,8.8954305 16,10 L16,17 L18,17 L18,18 L0,18 L0,17 L2,17 Z M3,17 L10,17 L10,2 C10,1.44771525 9.55228475,1 9,1 L4,1 C3.44771525,1 3,1.44771525 3,2 L3,17 Z M11,17 L15,17 L15,10 C15,9.44771525 14.5522847,9 14,9 L11,9 L11,17 Z"/>
    <path d="M4,5 L6,5 L6,6 L4,6 L4,5 Z M4,9 L6,9 L6,10 L4,10 L4,9 Z M7,5 L9,5 L9,6 L7,6 L7,5 Z M7,9 L9,9 L9,10 L7,10 L7,9 Z M12,11 L14,11 L14,12 L12,12 L12,11 Z M12,14 L14,14 L14,15 L12,15 L12,14 Z M4,13 L6,13 L6,14 L4,14 L4,13 Z M7,13 L9,13 L9,14 L7,14 L7,13 Z"/>
  </g>
</svg>
