<svg xmlns="http://www.w3.org/2000/svg" width="18" height="18" viewBox="0 0 18 18">
  <path fill="#EAB52F" d="M9,3 C10.3333333,1 12,9.53441915e-13 14,2.72848411e-12 C17,5.39104739e-12 18,3 18,5.75 C18,13 9.99154082,18 9,18 C8.00845918,18 0,13 0,5.75 C1.68388935e-16,3 1,-2.7288515e-12 4,0 C6,1.8189894e-12 7.66666667,1 9,3 Z M9.83205029,3.5547002 L9,4.80277564 L8.16794971,3.5547002 C7.0109146,1.81914754 5.64566871,1 4,1 C2.05947767,1 1,2.85408592 1,5.75 C1,8.66271383 2.43766119,11.4549409 4.84024676,13.8916462 C6.48182961,15.5565415 8.68962838,17 9,17 C9.31037162,17 11.5181704,15.5565415 13.1597532,13.8916462 C15.5623388,11.4549409 17,8.66271383 17,5.75 C17,2.85408592 15.9405223,1 14,1 C12.3543313,1 10.9890854,1.81914754 9.83205029,3.5547002 Z"/>
</svg>
