<svg xmlns="http://www.w3.org/2000/svg" width="18" height="18" viewBox="0 0 18 18">
  <path fill="#EAB52F" fill-rule="evenodd" d="M17,11 L14,11 L14,10 L17,10 L17,7 C17,6.44771525 16.5522847,6 16,6 L2,6 C1.44771525,6 1,6.44771525 1,7 L1,10 L4,10 L4,11 L1,11 L1,16 C1,16.5522847 1.44771525,17 2,17 L16,17 C16.5522847,17 17,16.5522847 17,16 L17,11 Z M2,5 L16,5 C17.1045695,5 18,5.8954305 18,7 L18,16 C18,17.1045695 17.1045695,18 16,18 L2,18 C0.8954305,18 0,17.1045695 0,16 L0,7 C0,5.8954305 0.8954305,5 2,5 Z M12,3 C12,1.8954305 11.1045695,1 10,1 L8,1 C6.8954305,1 6,1.8954305 6,3 L6,4 L5,4 L5,3 C5,1.34314575 6.34314575,0 8,0 L10,0 C11.6568542,0 13,1.34314575 13,3 L13,4 L12,4 L12,3 Z M7,10 L11,10 L11,11 L7,11 L7,10 Z M5,9 L6,9 L6,12 L5,12 L5,9 Z M12,9 L13,9 L13,12 L12,12 L12,9 Z"/>
</svg>
