<svg xmlns="http://www.w3.org/2000/svg" width="18" height="16" viewBox="0 0 18 16">
  <path fill="#609EFB" d="M13.209662,12.1146037 C15.5744129,10.0250037 17,7.84743164 17,6 C17,2.66268914 15.204254,1 13,1 C12.3593055,1 11.5929808,1.30652991 10.8047002,1.83205029 C10.5123147,2.02697399 10.2390524,2.23717573 9.99454137,2.4467566 C9.85099496,2.56979639 9.75232822,2.66188535 9.70710678,2.70710678 L9.01220909,3.40200447 L8.30578401,2.71976674 C8.27425608,2.69031448 8.27425608,2.69031448 8.24062684,2.65979051 C8.17755305,2.60293727 8.10317692,2.53853839 8.01858697,2.46851527 C7.77422758,2.26623586 7.50106542,2.0633057 7.20865761,1.87504175 C6.41786812,1.36589959 5.64795525,1.06847902 5,1.06847902 C2.734533,1.06847902 1,2.62940484 1,6 C1,7.84743164 2.42558706,10.0250037 4.79033797,12.1146037 C6.48727665,13.6140948 8.73386979,15 9,15 C9.26613021,15 11.5127233,13.6140948 13.209662,12.1146037 Z M9,16 C8.00845918,16 0,10.9705627 0,6 C0,1.33624831 3,0.0684790191 5,0.0684790191 C7,0.0684790191 9,2 9,2 C9,2 11,-5.68434189e-14 13,-5.68434189e-14 C15,-5.68434189e-14 18,1.4072352 18,6 C18,10.9705627 9.99154082,16 9,16 Z"/>
</svg>
