<svg xmlns="http://www.w3.org/2000/svg" width="18" height="18" viewBox="0 0 18 18">
  <path fill="#2EADA3" d="M15.2027668,12 L16.7964142,4 L5,4 L5,3 L16.7809412,3 C16.846593,3 16.9120852,3.0064652 16.9764697,3.01930199 C17.5180943,3.12728943 17.8696266,3.65390401 17.7616392,4.19552856 L16.1666237,12.1955286 C16.0733749,12.6632296 15.662832,13 15.1859257,13 L6,13 L6,12 L15.2027668,12 Z M7,18 C6.44771525,18 6,17.5522847 6,17 C6,16.4477153 6.44771525,16 7,16 C7.55228475,16 8,16.4477153 8,17 C8,17.5522847 7.55228475,18 7,18 Z M13,18 C12.4477153,18 12,17.5522847 12,17 C12,16.4477153 12.4477153,16 13,16 C13.5522847,16 14,16.4477153 14,17 C14,17.5522847 13.5522847,18 13,18 Z M0,1 L0,0 L1.68540691,0 C2.4220166,0 3.05267775,0.520922038 3.18216683,1.23631404 L4.40423263,13.5878953 C4.44739566,13.8263593 4.65761604,14 4.90315261,14 L16,14 L16,15 L4.90315261,15 C4.16654292,15 3.53588177,14.479078 3.40639268,13.763686 L2.18432688,1.41210468 C2.14116385,1.17364068 1.93094347,1 1.68540691,1 L0,1 Z"/>
</svg>
